<?xml version="1.0" standalone="no"?>
<!DOCTYPE svg PUBLIC "-//W3C//DTD SVG 20010904//EN"
 "http://www.w3.org/TR/2001/REC-SVG-20010904/DTD/svg10.dtd">
<svg version="1.0" xmlns="http://www.w3.org/2000/svg"
 width="1200.000000pt" height="1611.000000pt" viewBox="0 0 1200.000000 1611.000000"
 preserveAspectRatio="xMidYMid meet">

<g transform="translate(0.000000,1611.000000) scale(0.100000,-0.100000)"
fill="#000000" stroke="none">
<path d="M1330 15571 c-379 -80 -672 -361 -783 -748 l-22 -78 -3 -6645 c-2
-4986 0 -6664 9 -6720 66 -432 417 -783 849 -849 56 -9 1230 -11 4665 -9
l4590 3 77 22 c192 55 334 137 469 272 134 135 218 279 272 468 l22 78 3 5235
2 5235 -1877 1877 -1878 1878 -3155 -1 c-2995 0 -3159 -1 -3240 -18z m2109
-5812 c124 -28 236 -119 292 -236 65 -134 49 -315 -38 -431 -110 -148 -285
-212 -458 -167 -212 55 -354 272 -316 483 44 246 281 407 520 351z m5651 -419
l0 -430 -2230 0 -2230 0 0 430 0 430 2230 0 2230 0 0 -430z m-5567 -1667 c89
-42 168 -121 210 -210 30 -64 32 -75 32 -179 0 -107 -1 -112 -38 -186 -107
-218 -358 -304 -575 -197 -163 80 -263 269 -234 443 26 161 133 291 287 348
39 14 72 18 150 15 88 -2 108 -6 168 -34z m5565 -390 l-3 -428 -2227 -3 -2228
-2 0 430 0 430 2230 0 2230 0 -2 -427z m-5667 -1633 c132 -25 251 -119 312
-247 30 -64 32 -75 32 -178 0 -106 -2 -113 -34 -180 -45 -91 -120 -166 -208
-208 -64 -30 -75 -32 -178 -32 -103 0 -114 2 -178 32 -177 84 -282 276 -249
455 33 177 152 306 325 353 64 17 108 18 178 5z m5669 -420 l0 -430 -2230 0
-2230 0 0 430 0 430 2230 0 2230 0 0 -430z"/>
</g>
</svg>
