<?xml version="1.0" standalone="no"?>
<!DOCTYPE svg PUBLIC "-//W3C//DTD SVG 20010904//EN"
 "http://www.w3.org/TR/2001/REC-SVG-20010904/DTD/svg10.dtd">
<svg version="1.0" xmlns="http://www.w3.org/2000/svg"
 width="452.000000pt" height="452.000000pt" viewBox="0 0 452.000000 452.000000"
 preserveAspectRatio="xMidYMid meet">

<g transform="translate(0.000000,452.000000) scale(0.100000,-0.100000)"
fill="#000000" stroke="none">
<path d="M1270 4325 c-103 -32 -174 -132 -186 -262 -4 -40 -8 -73 -10 -73 -36
0 -592 -85 -622 -95 -61 -20 -113 -65 -148 -127 l-29 -53 0 -590 c0 -649 0
-652 66 -890 41 -149 40 -148 87 -102 32 31 45 37 81 37 34 0 42 3 37 15 -21
55 -58 195 -73 275 -16 84 -18 161 -18 657 l0 562 22 23 c20 20 62 28 379 74
438 65 407 48 413 219 3 113 4 115 33 140 l30 25 928 0 928 0 31 -26 c30 -25
31 -27 31 -117 0 -116 12 -163 48 -181 15 -7 182 -35 371 -61 303 -43 347 -51
370 -71 l26 -22 3 -499 c3 -500 -3 -637 -34 -787 -53 -259 -197 -548 -399
-803 -287 -361 -787 -749 -1292 -1002 l-83 -41 -82 41 c-46 23 -144 77 -219
120 -75 44 -141 79 -146 79 -5 0 -28 -20 -52 -44 -36 -36 -42 -49 -39 -77 3
-31 11 -38 93 -87 127 -74 422 -222 445 -222 26 0 329 153 473 239 779 464
1299 1063 1457 1675 53 208 55 235 55 861 l0 580 -29 53 c-35 62 -87 107 -148
127 -32 11 -584 95 -620 95 -3 0 -8 33 -12 73 -13 133 -83 231 -190 262 -72
22 -1907 21 -1976 0z"/>
<path d="M1510 3973 c-8 -3 -25 -15 -37 -26 -22 -19 -23 -29 -23 -143 l0 -123
-32 -6 c-18 -3 -190 -28 -383 -55 -327 -47 -351 -52 -375 -75 l-25 -25 0 -478
c0 -525 2 -550 67 -751 l30 -94 71 71 70 71 -21 88 c-35 144 -43 266 -40 633
l3 345 374 52 c246 35 382 58 398 68 35 23 43 55 43 171 l0 104 630 0 630 0 0
-104 c0 -116 8 -148 42 -170 15 -9 162 -35 398 -68 l375 -53 0 -410 c0 -449
-3 -475 -66 -670 -121 -375 -469 -779 -963 -1117 -135 -92 -394 -248 -413
-248 -7 0 -51 23 -99 51 l-86 51 -64 -63 c-35 -35 -64 -66 -64 -70 0 -8 271
-159 298 -166 52 -13 487 250 757 459 153 118 429 393 528 525 206 276 319
552 347 846 7 66 10 280 8 519 l-3 408 -25 25 c-24 23 -48 28 -375 75 -193 27
-365 52 -382 55 l-33 6 0 123 c0 119 -1 123 -26 147 l-26 24 -746 2 c-411 1
-754 -1 -762 -4z"/>
<path d="M1940 3199 c-40 -16 -69 -50 -81 -93 -9 -36 -81 -112 -547 -578
l-537 -538 -115 0 -115 0 -180 -180 -180 -180 114 0 114 0 -71 -74 c-62 -63
-72 -79 -72 -109 0 -54 37 -92 89 -92 37 0 47 7 111 70 l70 69 0 -114 0 -115
180 180 180 180 0 115 0 115 543 543 c372 371 549 542 563 542 28 0 86 40 101
70 7 14 13 43 13 65 0 95 -93 159 -180 124z"/>
<path d="M2529 2081 c-27 -27 -39 -47 -39 -67 0 -25 -78 -107 -543 -572 l-542
-542 -115 0 -115 0 -180 -180 -180 -180 114 0 114 0 -71 -74 c-59 -60 -72 -80
-72 -106 0 -46 47 -90 95 -90 32 0 46 9 104 65 37 36 71 65 74 65 4 0 7 -48 7
-107 l0 -108 180 180 180 180 0 115 0 115 538 537 c441 441 543 539 571 544
18 4 48 22 66 40 87 87 27 224 -100 224 -42 0 -52 -5 -86 -39z"/>
<path d="M1106 1809 c-22 -26 -26 -40 -26 -99 l0 -69 69 -78 c92 -104 324
-313 347 -313 5 0 36 27 69 61 l60 60 -30 26 c-180 152 -344 315 -417 413 -28
38 -40 38 -72 -1z"/>
<path d="M930 1395 l-65 -66 127 -124 128 -125 103 0 c89 0 106 3 121 19 16
17 13 21 -51 77 -38 32 -120 109 -183 171 l-116 113 -64 -65z"/>
</g>
</svg>
